<?xml version="1.0" encoding="UTF-8" standalone="no"?>
<!DOCTYPE svg PUBLIC "-//W3C//DTD SVG 1.1//EN" "http://www.w3.org/Graphics/SVG/1.1/DTD/svg11.dtd">
<svg width="100%" height="100%" viewBox="0 0 417 417" version="1.1" xmlns="http://www.w3.org/2000/svg" xmlns:xlink="http://www.w3.org/1999/xlink" xml:space="preserve" xmlns:serif="http://www.serif.com/" style="fill-rule:evenodd;clip-rule:evenodd;stroke-linejoin:round;stroke-miterlimit:2;">
    <g transform="matrix(3.576471,0,0,1.160305,-165.317647,-97.580153)">
        <path d="M142.306,306.75L68.694,306.75C64.964,300.289 63,292.96 63,285.5C63,262.044 82.044,243 105.5,243C128.956,243 148,262.044 148,285.5C148,292.96 146.036,300.289 142.306,306.75Z" style="fill:rgb(255,178,99);"/>
    </g>
    <g transform="matrix(-3.576471,0,-0,-0.607364,590.317647,428.589493)">
        <path d="M142.306,306.75L68.694,306.75C64.964,300.289 63,292.96 63,285.5C63,262.044 82.044,243 105.5,243C128.956,243 148,262.044 148,285.5C148,292.96 146.036,300.289 142.306,306.75Z" style="fill:rgb(255,178,99);"/>
    </g>
    <g transform="matrix(0.638525,0.769601,-0.769601,0.638525,281.201876,54.563754)">
        <path d="M57.5,251C53.443,261.383 50.15,277.749 50.15,295.5C50.15,313.251 53.443,329.617 57.5,340C43.978,340 33,320.06 33,295.5C33,270.94 43.978,251 57.5,251Z" style="fill:rgb(255,178,99);"/>
    </g>
    <g transform="matrix(0.638525,0.769601,-0.769601,0.638525,319.201876,61.563754)">
        <path d="M57.5,251C53.443,261.383 50.15,277.749 50.15,295.5C50.15,313.251 53.443,329.617 57.5,340C43.978,340 33,320.06 33,295.5C33,270.94 43.978,251 57.5,251Z" style="fill:rgb(255,178,99);"/>
    </g>
    <g transform="matrix(-0.618082,0.786113,-0.786113,-0.618082,616.336227,424.941826)">
        <path d="M57.5,251C53.443,261.383 50.15,277.749 50.15,295.5C50.15,313.251 53.443,329.617 57.5,340C43.978,340 33,320.06 33,295.5C33,270.94 43.978,251 57.5,251Z" style="fill:rgb(255,178,99);"/>
    </g>
    <g transform="matrix(-0.618082,0.786113,-0.786113,-0.618082,580.336227,430.941826)">
        <path d="M57.5,251C53.443,261.383 50.15,277.749 50.15,295.5C50.15,313.251 53.443,329.617 57.5,340C43.978,340 33,320.06 33,295.5C33,270.94 43.978,251 57.5,251Z" style="fill:rgb(255,178,99);"/>
    </g>
    <g transform="matrix(-1.291984,-1.106338,0.594647,-0.69443,226.456553,354.459744)">
        <path d="M57.5,251C53.443,261.383 50.15,277.749 50.15,295.5C50.15,313.251 53.443,329.617 57.5,340C43.978,340 33,320.06 33,295.5C33,270.94 43.978,251 57.5,251Z" style="fill:rgb(255,178,99);"/>
    </g>
    <g transform="matrix(1.272066,-1.129183,0.606926,0.683724,-170.604781,-57.471261)">
        <path d="M57.5,251C53.443,261.383 50.15,277.749 50.15,295.5C50.15,313.251 53.443,329.617 57.5,340C43.978,340 33,320.06 33,295.5C33,270.94 43.978,251 57.5,251Z" style="fill:rgb(255,178,99);"/>
    </g>
    <g transform="matrix(0.965365,-0.260903,0.313521,1.160055,-69.965549,13.695882)">
        <path d="M116,101.785L116,205.215C116,207.856 113.424,210 110.25,210L98.75,210C95.576,210 93,207.856 93,205.215L93,101.785C93,99.144 95.576,97 98.75,97L110.25,97C113.424,97 116,99.144 116,101.785Z" style="fill:rgb(255,178,99);"/>
    </g>
    <g transform="matrix(0.9179,0.396812,-0.476839,1.103018,300.314726,-43.280053)">
        <path d="M116,101.785L116,205.215C116,207.856 113.424,210 110.25,210L98.75,210C95.576,210 93,207.856 93,205.215L93,101.785C93,99.144 95.576,97 98.75,97L110.25,97C113.424,97 116,99.144 116,101.785Z" style="fill:rgb(255,178,99);"/>
    </g>
    <path d="M150,224.25L150,230.75C150,232.544 148.544,234 146.75,234L140.25,234C138.456,234 137,232.544 137,230.75L137,224.25C137,222.456 138.456,221 140.25,221L146.75,221C148.544,221 150,222.456 150,224.25Z"/>
    <g transform="matrix(1,0,0,1,125,-11)">
        <path d="M150,224.25L150,230.75C150,232.544 148.544,234 146.75,234L140.25,234C138.456,234 137,232.544 137,230.75L137,224.25C137,222.456 138.456,221 140.25,221L146.75,221C148.544,221 150,222.456 150,224.25Z"/>
    </g>
    <g transform="matrix(1.446779,0,0,1.199786,-150.885694,-36.358299)">
        <g transform="matrix(88.395216,0,0,88.395216,335.616379,115.060892)">
        </g>
        <text x="158.524px" y="115.061px" style="font-family:'Papyrus', sans-serif;font-size:88.395px;fill:rgb(0,185,255);">cr<tspan x="234.92px 282.312px " y="115.061px 115.061px ">ab</tspan></text>
    </g>
</svg>
